<svg version="1.1" id="Layer_1" xmlns="http://www.w3.org/2000/svg" xmlns:xlink="http://www.w3.org/1999/xlink" x="0px" y="0px"
	 viewBox="0 0 490 490" style="enable-background:new 0 0 490 490;" xml:space="preserve">
<g>
	<path style="fill:#76FFD9;" d="M374.477,432.8c-6.19,0-11.81,2.38-16.042,6.249v-13.429c0-13.114-10.648-23.746-23.785-23.746
		c-13.137,0-23.785,10.631-23.785,23.746v10.116c-4.232-3.87-9.852-6.25-16.042-6.25c-6.373,0-12.149,2.516-16.417,6.591V477.5
		c0,2.75-2.25,5-5,5h124.856v-25.955C398.262,443.431,387.612,432.8,374.477,432.8z"/>
	<path style="fill:#FFFFFF;" d="M278.405,52.435V12.5c0-2.75-2.25-5-5-5h-54.396c-2.75,0-5,2.25-5,5v39.935H278.405z"/>
	<path style="fill:#D8E0EA;" d="M234.651,52.435V12.5c0-2.75,2.25-5,5-5h-20.642c-2.75,0-5,2.25-5,5v39.935H234.651z"/>
	<rect x="214.009" y="155.148" style="fill:#FFFFFF;" width="64.396" height="24.301"/>
	<rect x="214.009" y="155.148" style="opacity:0.1;fill:#E1EAF8;" width="20.642" height="24.301"/>
	<path style="fill:#FFFFFF;" d="M214.009,282.16v147.752c1.45-0.278,2.946-0.426,4.479-0.426c13.136,0,23.786,10.631,23.786,23.746
		V482.5h31.132c2.75,0,5-2.25,5-5V282.16H214.009z"/>
	<path style="fill:#D8E0EA;" d="M218.488,429.486c6.243,0,11.92,2.404,16.164,6.331V282.16h-20.642v147.752
		C215.459,429.634,216.955,429.486,218.488,429.486z"/>
	<path style="fill:#76FFD9;" d="M106.348,155.148c-5.5,0-10-4.5-10-10V62.435c0-5.5,4.5-10,10-10h279.316
		c5.5,0,13.142,3.222,16.982,7.159l36.124,37.039c3.841,3.937,3.841,10.38,0,14.317l-36.124,37.039
		c-3.841,3.937-11.482,7.159-16.982,7.159H106.348z"/>
	<path style="fill:#76FFD9;" d="M242.273,482.5v-29.268c0-13.114-10.649-23.746-23.786-23.746c-6.19,0-11.81,2.38-16.042,6.25
		v-10.116c0-13.114-10.649-23.746-23.785-23.746c-13.136,0-23.786,10.631-23.786,23.746v13.429
		c-4.232-3.869-9.851-6.249-16.041-6.249c-13.136,0-23.785,10.631-23.785,23.746V482.5H242.273z"/>
	<path style="fill:#5DE0BF;" d="M149.096,435.156c-3.107-1.498-6.579-2.356-10.262-2.356c-13.136,0-23.785,10.631-23.785,23.746
		V482.5h20.603v-25.955C135.651,447.131,141.139,438.997,149.096,435.156z"/>
	<path style="fill:#5DE0BF;" d="M119.483,145.148V62.435c0-5.5,4.5-10,10-10h-23.135c-5.5,0-10,4.5-10,10v82.712c0,5.5,4.5,10,10,10
		h23.135C123.983,155.148,119.483,150.648,119.483,145.148z"/>
	<ellipse style="fill:#5DE0BF;" cx="156.253" cy="103.791" rx="20.467" ry="20.433"/>
	<path style="fill:#00C395;" d="M151.786,103.791c0-8.45,5.139-15.701,12.466-18.81c-2.458-1.043-5.161-1.622-8-1.622
		c-11.303,0-20.466,9.148-20.466,20.432c0,11.285,9.163,20.433,20.466,20.433c2.839,0,5.542-0.579,8-1.622
		C156.925,119.492,151.786,112.242,151.786,103.791z"/>
	<path style="fill:#FFC843;" d="M383.651,282.16c5.5,0,10-4.5,10-10v-82.712c0-5.5-4.5-10-10-10H104.336
		c-5.5,0-13.142,3.222-16.982,7.159l-36.124,37.038c-3.84,3.937-3.84,10.38,0,14.317l36.124,37.039
		c3.84,3.937,11.482,7.159,16.982,7.159H383.651z"/>
	<path style="fill:#FFB400;" d="M76.677,237.962c-3.84-3.937-3.84-10.38,0-14.317l36.125-37.038
		c3.84-3.937,11.482-7.159,16.982-7.159h-25.448c-5.5,0-13.142,3.222-16.982,7.159l-36.124,37.038c-3.84,3.937-3.84,10.38,0,14.317
		l36.124,37.039c3.84,3.937,11.482,7.159,16.982,7.159h25.448c-5.5,0-13.142-3.222-16.982-7.159L76.677,237.962z"/>
	<ellipse style="fill:#FFB400;" cx="344.607" cy="230.804" rx="20.467" ry="20.433"/>
	<path style="fill:#FF8025;" d="M339.166,230.804c0-8.633,5.372-16,12.954-18.992c-2.328-0.919-4.857-1.44-7.513-1.44
		c-11.303,0-20.467,9.148-20.467,20.432c0,11.285,9.164,20.433,20.467,20.433c2.655,0,5.185-0.521,7.513-1.44
		C344.538,246.804,339.166,239.438,339.166,230.804z"/>
	<path style="fill:#434C54;" d="M369.561,88.881c0-4.142-3.357-7.5-7.5-7.5H205.298c-4.142,0-7.5,3.358-7.5,7.5
		c0,4.142,3.358,7.5,7.5,7.5h156.764C366.204,96.381,369.561,93.023,369.561,88.881z"/>
	<path style="fill:#434C54;" d="M205.298,111.201c-4.142,0-7.5,3.358-7.5,7.5c0,4.142,3.358,7.5,7.5,7.5h116.309
		c4.143,0,7.5-3.358,7.5-7.5c0-4.142-3.357-7.5-7.5-7.5H205.298z"/>
	<path style="fill:#434C54;" d="M152.477,223.394h142.224c4.143,0,7.5-3.358,7.5-7.5c0-4.142-3.357-7.5-7.5-7.5H152.477
		c-4.142,0-7.5,3.358-7.5,7.5C144.977,220.036,148.335,223.394,152.477,223.394z"/>
	<path style="fill:#434C54;" d="M152.477,253.214h105.521c4.143,0,7.5-3.358,7.5-7.5s-3.357-7.5-7.5-7.5H152.477
		c-4.142,0-7.5,3.358-7.5,7.5S148.335,253.214,152.477,253.214z"/>
	<path style="fill:#434C54;" d="M121.387,201.682c-2.863-2.992-7.612-3.096-10.604-0.232l-25.006,23.935
		c-1.478,1.415-2.314,3.372-2.314,5.418c0,2.046,0.836,4.003,2.314,5.418l25.006,23.936c1.453,1.391,3.32,2.082,5.185,2.082
		c1.974,0,3.946-0.775,5.419-2.314c2.864-2.992,2.76-7.74-0.232-10.604l-19.346-18.519l19.346-18.517
		C124.147,209.422,124.251,204.674,121.387,201.682z"/>
	<path style="fill:#434C54;" d="M444.139,91.396l-36.125-37.039c-5.239-5.371-14.849-9.421-22.35-9.421H344
		c-4.143,0-7.5,3.358-7.5,7.5c0,4.142,3.357,7.5,7.5,7.5h41.664c3.451,0,9.203,2.425,11.613,4.895l36.125,37.039
		c0.998,1.023,0.998,2.819-0.001,3.844l-36.123,37.038c-2.411,2.471-8.163,4.896-11.614,4.896H106.348c-1.355,0-2.5-1.145-2.5-2.5
		V62.435c0-1.355,1.145-2.5,2.5-2.5H313c4.143,0,7.5-3.358,7.5-7.5c0-4.142-3.357-7.5-7.5-7.5h-27.095V12.5
		c0-6.893-5.607-12.5-12.5-12.5h-54.396c-6.893,0-12.5,5.607-12.5,12.5v32.435H106.348c-9.649,0-17.5,7.85-17.5,17.5v82.712
		c0,9.649,7.851,17.5,17.5,17.5h100.161v9.301H104.336c-7.503,0-17.112,4.05-22.352,9.422L45.86,218.408
		c-6.667,6.835-6.667,17.956,0,24.791l36.125,37.039c5.239,5.372,14.848,9.422,22.351,9.422h33.664c4.142,0,7.5-3.358,7.5-7.5
		s-3.358-7.5-7.5-7.5h-33.664c-3.451,0-9.204-2.425-11.613-4.896l-36.125-37.039c-0.999-1.024-0.999-2.82,0-3.844l36.124-37.038
		c2.41-2.471,8.163-4.896,11.614-4.896h279.316c1.355,0,2.5,1.145,2.5,2.5v82.712c0,1.355-1.145,2.5-2.5,2.5H170
		c-4.142,0-7.5,3.358-7.5,7.5s3.358,7.5,7.5,7.5h36.509v121.747c-5.189-10.101-15.72-17.031-27.848-17.031
		c-17.251,0-31.286,14.017-31.286,31.246v0.87c-2.755-0.784-5.626-1.19-8.541-1.19c-17.251,0-31.285,14.017-31.285,31.246V482.5
		c0,4.142,3.358,7.5,7.5,7.5h210.69c4.143,0,7.5-3.358,7.5-7.5s-3.357-7.5-7.5-7.5h-39.833v-35.545
		c2.527-1.577,5.503-2.468,8.655-2.468c4.059,0,7.959,1.522,10.982,4.285c2.194,2.006,5.365,2.528,8.085,1.328
		c2.72-1.199,4.475-3.891,4.475-6.863v-10.116c0-8.958,7.306-16.246,16.285-16.246s16.285,7.288,16.285,16.246v13.429v11.329
		c0,4.142,3.357,7.5,7.5,7.5c4.142,0,7.5-3.358,7.5-7.5v-7.639c2.558-1.586,5.506-2.439,8.542-2.439
		c8.979,0,16.285,7.288,16.285,16.246V475H353c-4.143,0-7.5,3.358-7.5,7.5s3.357,7.5,7.5,7.5h45c4.143,0,7.5-3.358,7.5-7.5v-25.955
		c0-17.229-14.034-31.246-31.285-31.246c-2.916,0-5.787,0.406-8.542,1.19v-0.87v-0.093c0-0.032-0.005-0.063-0.005-0.094
		c-0.102-17.143-14.092-31.059-31.28-31.059c-16.436,0-29.953,12.724-31.192,28.829c-2.783-0.802-5.687-1.217-8.635-1.217
		c-2.99,0-5.894,0.424-8.655,1.214V289.66h97.746c9.649,0,17.5-7.851,17.5-17.5v-82.712c0-9.649-7.851-17.5-17.5-17.5h-97.746
		v-9.301h99.759c7.502,0,17.111-4.05,22.352-9.422l36.123-37.038C450.807,109.352,450.807,98.23,444.139,91.396z M221.509,15h49.396
		v29.935h-49.396V15z M234.773,475H122.549v-18.455c0-8.958,7.306-16.246,16.285-16.246c3.037,0,5.984,0.853,8.541,2.439v7.732
		c0,4.142,3.358,7.5,7.5,7.5c4.142,0,7.5-3.358,7.5-7.5v-24.85c0-8.958,7.306-16.246,16.286-16.246
		c8.98,0,16.285,7.288,16.285,16.246v24.85c0,4.142,3.358,7.5,7.5,7.5c4.142,0,7.5-3.358,7.5-7.5v-11.045
		c2.558-1.586,5.504-2.439,8.542-2.439c8.98,0,16.286,7.288,16.286,16.246V475z M270.905,475h-21.132v-21.768
		c0-16.211-12.426-29.574-28.264-31.097V289.66h7.241v49.932c0,4.142,3.358,7.5,7.5,7.5c4.142,0,7.5-3.358,7.5-7.5V289.66h4.914
		v27.843c0,4.142,3.357,7.5,7.5,7.5c4.143,0,7.5-3.358,7.5-7.5V289.66h7.241V475z M270.905,171.948h-49.396v-9.301h49.396V171.948z"
		/>
</g>
<g>
</g>
<g>
</g>
<g>
</g>
<g>
</g>
<g>
</g>
<g>
</g>
<g>
</g>
<g>
</g>
<g>
</g>
<g>
</g>
<g>
</g>
<g>
</g>
<g>
</g>
<g>
</g>
<g>
</g>
</svg>
